<svg xmlns="http://www.w3.org/2000/svg" width="100%" height="100%" viewBox="0 0 1000 1000">
  <!-- 渐变定义 -->
  <defs>
    <linearGradient id="bgGradient" x1="0%" y1="0%" x2="100%" y2="100%">
      <stop offset="0%" style="stop-color:#FFD700;stop-opacity:0.2" />
      <stop offset="100%" style="stop-color:#E63946;stop-opacity:0.3" />
    </linearGradient>
    <!-- 灯笼图案 -->
    <pattern id="lanternPattern" x="0" y="0" width="100" height="150" patternUnits="userSpaceOnUse">
      <g opacity="0.1">
        <rect x="40" y="10" width="20" height="30" rx="5" ry="5" fill="#E63946" />
        <path d="M40,40 C45,45 55,45 60,40 L60,60 L40,60 Z" fill="#E63946" />
        <circle cx="50" cy="70" r="5" fill="#FFD700" />
      </g>
    </pattern>
    <!-- 星星图案 -->
    <pattern id="starPattern" x="0" y="0" width="50" height="50" patternUnits="userSpaceOnUse">
      <g opacity="0.2">
        <path d="M25,5 L28,15 L40,15 L30,22 L35,33 L25,27 L15,33 L20,22 L10,15 L22,15 Z" fill="#FFD700" />
      </g>
    </pattern>
  </defs>
  
  <!-- 背景 -->
  <rect width="100%" height="100%" fill="#F8F0E3" />
  <rect width="100%" height="100%" fill="url(#bgGradient)" />
  
  <!-- 装饰图案层 -->
  <rect width="100%" height="100%" fill="url(#lanternPattern)" />
  <rect width="100%" height="100%" fill="url(#starPattern)" />
  
  <!-- 角落装饰 -->
  <g opacity="0.2" transform="translate(50,50)">
    <path d="M0,0 Q20,10 0,20 T0,40" stroke="#E63946" stroke-width="2" fill="none" />
    <path d="M0,0 Q10,20 20,0 T40,0" stroke="#E63946" stroke-width="2" fill="none" />
  </g>
  <g opacity="0.2" transform="translate(900,50)">
    <path d="M50,0 Q30,10 50,20 T50,40" stroke="#E63946" stroke-width="2" fill="none" />
    <path d="M0,0 Q40,20 50,0 T50,50" stroke="#E63946" stroke-width="2" fill="none" />
  </g>
  <g opacity="0.2" transform="translate(50,900)">
    <path d="M0,50 Q20,40 0,30 T0,10" stroke="#E63946" stroke-width="2" fill="none" />
    <path d="M0,0 Q10,40 20,50 T40,50" stroke="#E63946" stroke-width="2" fill="none" />
  </g>
  <g opacity="0.2" transform="translate(900,900)">
    <path d="M50,50 Q30,40 50,30 T50,10" stroke="#E63946" stroke-width="2" fill="none" />
    <path d="M0,50 Q40,40 50,50 T50,50" stroke="#E63946" stroke-width="2" fill="none" />
  </g>
</svg>